<?xml version="1.0" standalone="no"?><!DOCTYPE svg PUBLIC "-//W3C//DTD SVG 1.1//EN" "http://www.w3.org/Graphics/SVG/1.1/DTD/svg11.dtd"><svg t="1777538711487" class="icon" viewBox="0 0 1024 1024" version="1.1" xmlns="http://www.w3.org/2000/svg" p-id="1780" xmlns:xlink="http://www.w3.org/1999/xlink" width="200" height="200"><path d="M858.112 0a165.701818 165.701818 0 0 1 165.546667 166.570667v690.858666c0 92.16-74.410667 166.570667-165.888 166.570667H165.888A166.136242 166.136242 0 0 1 0 857.770667V166.570667C0 74.410667 74.410667 0 165.888 0h692.224zM216.932848 854.140121c11.729455 8.533333 28.423758 13.560242 44.745697 13.560243 17.563152 0 32.426667-5.585455 42.077091-15.949576l229.251879-247.311515c75.74497 86.295273 207.778909 237.102545 215.381333 246.597818 7.757576 9.681455 23.055515 15.608242 40.184243 15.608242 15.515152 0 30.192485-4.902788 41.270303-13.777454 12.101818-9.712485 18.928485-23.614061 19.828364-40.153212 0.99297-19.48703-6.392242-37.608727-14.336-45.459394l-238.095516-236.575031 27.306667-32.364606c11.419152 8.998788 32.116364 23.024485 55.606303 27.710061a26.189576 26.189576 0 0 0 5.275152 0.434424c14.087758 0 41.394424-9.122909 114.998303-87.908848a1930.395152 1930.395152 0 0 0 91.104969-105.813334l2.451394-3.072c5.368242-6.609455 6.268121-15.266909 2.327273-23.707151-6.237091-13.560242-23.489939-24.638061-38.353455-24.638061a25.56897 25.56897 0 0 0-18.49406 7.447273c-13.187879 13.436121-131.568485 132.220121-137.495273 138.27103-3.568485 3.072-11.853576 8.688485-16.880485 8.688485-1.148121 0-1.706667-0.279273-2.482424-1.303273-5.368242-7.043879 1.675636-15.018667 3.568485-17.190787 5.026909-5.585455 123.066182-137.464242 132.933818-149.007516 6.237091-7.261091 7.261091-17.873455 2.544485-28.361697-4.716606-10.488242-15.794424-21.224727-29.758061-21.224727-7.478303 0-14.522182 3.10303-20.48 8.905697-10.519273 10.146909-127.534545 128.155152-134.609454 135.19903-3.692606 3.320242-13.34303 10.364121-19.362909 10.364122-1.334303 0-1.799758-0.310303-2.234182-0.775758-4.685576-4.902788 3.227152-18.369939 6.950788-23.148606 14.894545-15.515152 129.086061-135.230061 136.936727-145.718303 5.275152-7.13697 5.492364-17.997576 0.465455-28.237576-6.050909-12.31903-17.37697-20.076606-29.323637-20.076606-7.168 0-14.087758 2.637576-20.697212 7.757576-22.155636 17.345939-151.055515 134.981818-168.494545 171.597576l-3.134061 6.361212c-10.177939 21.224727-15.32897 31.806061-10.643394 54.737454 3.475394 16.880485 19.362909 33.885091 30.099394 43.783758l-24.60703 25.879273a186570.752 186570.752 0 0 1-237.53697-240.671031c-28.299636-29.199515-51.137939-43.442424-69.60097-43.442424-29.075394 0-37.112242 32.705939-37.360485 50.734546-0.899879 6.826667-6.019879 48.903758 4.158061 85.271272 7.726545 27.461818 63.332848 89.925818 80.213333 108.51297 19.145697 20.976485 38.477576 40.587636 54.396122 55.296 25.134545 23.179636 34.78497 27.710061 40.370424 29.075394 8.378182 2.07903 19.48703 3.10303 32.892121 3.10303 15.32897 0 30.223515-1.241212 38.167273-2.172121l19.797333 21.659152c-43.070061 40.711758-231.734303 219.011879-245.139394 233.037575-10.736485 11.29503-16.446061 31.340606-14.677333 51.293091 1.489455 16.41503 8.067879 29.758061 18.49406 37.174303z" fill="#fff" p-id="1781"></path></svg>